<svg width="20" height="20" viewBox="0 0 20 20" fill="none" xmlns="http://www.w3.org/2000/svg">
<path fill-rule="evenodd" clip-rule="evenodd" d="M13.6122 2.29184H6.38807C3.87057 2.29184 2.29224 4.07434 2.29224 6.59684V13.4035C2.29224 15.926 3.86224 17.7085 6.38807 17.7085H13.6114C16.1372 17.7085 17.7089 15.926 17.7089 13.4035V6.59684C17.7089 4.07434 16.1372 2.29184 13.6122 2.29184Z" stroke="white" stroke-width="1.5" stroke-linecap="round" stroke-linejoin="round"/>
<path opacity="0.4" d="M6.26738 10.9978C5.71654 10.9978 5.26904 10.5503 5.26904 10.0003C5.26904 9.45035 5.71654 9.00201 6.26738 9.00201C6.81821 9.00201 7.26571 9.45035 7.26571 10.0003C7.26571 10.5503 6.81821 10.9978 6.26738 10.9978" fill="white"/>
<path opacity="0.4" d="M10 10.9978C9.44921 10.9978 9.00171 10.5503 9.00171 10.0003C9.00171 9.45035 9.44921 9.00201 10 9.00201C10.5509 9.00201 10.9984 9.45035 10.9984 10.0003C10.9984 10.5503 10.5509 10.9978 10 10.9978" fill="white"/>
<path opacity="0.4" d="M13.7327 10.9978C13.1819 10.9978 12.7344 10.5503 12.7344 10.0003C12.7344 9.45035 13.1819 9.00201 13.7327 9.00201C14.2835 9.00201 14.731 9.45035 14.731 10.0003C14.731 10.5503 14.2835 10.9978 13.7327 10.9978" fill="white"/>
</svg>
