<svg width="20" height="20" viewBox="0 0 20 20" fill="none" xmlns="http://www.w3.org/2000/svg">
<path opacity="0.4" d="M9.57699 2.32417H6.46116C3.89866 2.32417 2.29199 4.13834 2.29199 6.70667V13.635C2.29199 16.2033 3.89116 18.0175 6.46116 18.0175H13.8145C16.3853 18.0175 17.9845 16.2033 17.9845 13.635V10.2783" stroke="white" stroke-width="1.5" stroke-linecap="round" stroke-linejoin="round"/>
<path fill-rule="evenodd" clip-rule="evenodd" d="M7.35652 9.10076L13.584 2.87326C14.3599 2.09826 15.6174 2.09826 16.3932 2.87326L17.4074 3.88742C18.1832 4.66326 18.1832 5.92159 17.4074 6.69659L11.1499 12.9541C10.8107 13.2933 10.3507 13.4841 9.87069 13.4841H6.74902L6.82736 10.3341C6.83902 9.87076 7.02819 9.42909 7.35652 9.10076Z" stroke="white" stroke-width="1.5" stroke-linecap="round" stroke-linejoin="round"/>
<path d="M12.6377 3.83542L16.4427 7.64042" stroke="white" stroke-width="1.5" stroke-linecap="round" stroke-linejoin="round"/>
</svg>
