<svg width="20" height="20" viewBox="0 0 20 20" fill="none" xmlns="http://www.w3.org/2000/svg">
<path fill-rule="evenodd" clip-rule="evenodd" d="M14.8812 17.014C16.4437 17.014 17.7087 15.7482 17.7087 14.1865V11.9365C16.6753 11.9365 15.842 11.1032 15.842 10.0707C15.842 9.03733 16.6753 8.20483 17.7087 8.20483L17.707 5.95233C17.707 4.39067 16.442 3.12483 14.8803 3.12483H5.12033C3.55866 3.12483 2.29283 4.39067 2.29283 5.95233L2.29199 8.27733C3.32449 8.27733 4.15783 9.03733 4.15783 10.0707C4.15783 11.1032 3.32449 11.9365 2.29199 11.9365V14.1865C2.29199 15.7482 3.55699 17.014 5.11866 17.014H14.8812Z" stroke="white" stroke-width="1.5" stroke-linecap="round" stroke-linejoin="round"/>
<path opacity="0.4" fill-rule="evenodd" clip-rule="evenodd" d="M10 11.5453L11.45 12.3078C11.5858 12.3786 11.745 12.2636 11.7192 12.1128L11.4417 10.4969L12.6158 9.35442C12.7258 9.24692 12.665 9.06109 12.5133 9.03859L10.8917 8.80275L10.1658 7.33275C10.0983 7.19525 9.90251 7.19525 9.83417 7.33275L9.10834 8.80275L7.48751 9.03859C7.33584 9.06109 7.27501 9.24692 7.38501 9.35442L8.55834 10.4969L8.28084 12.1128C8.25501 12.2636 8.41417 12.3786 8.55001 12.3078L10 11.5453Z" stroke="white" stroke-width="1.5" stroke-linecap="round" stroke-linejoin="round"/>
</svg>
